<svg width="23" height="23" viewBox="0 0 23 23" fill="none" xmlns="http://www.w3.org/2000/svg">
<g id="Group 5462">
<path id="Vector" d="M6.68436 4.80321C10.1214 2.33332 14.8308 2.90113 17.5984 5.97263C17.9362 6.34745 17.8393 6.92267 17.4296 7.21709C17.0199 7.51152 16.4533 7.41215 16.1037 7.0483C13.9342 4.78989 10.3656 4.4077 7.75057 6.28692C4.88448 8.34653 4.22768 12.358 6.2873 15.2241C8.16652 17.8392 11.6707 18.615 14.4471 17.1664C14.8944 16.933 15.4631 17.0195 15.7576 17.4292C16.052 17.8389 15.9604 18.415 15.5207 18.6625C11.9178 20.6906 7.27106 19.724 4.80359 16.2903C2.15626 12.6064 3.00042 7.45054 6.68436 4.80321Z" fill="#000036"/>
<path id="Vector_2" d="M11.488 22.6701C8.90826 22.6701 6.3321 21.7851 4.25062 20.0184C3.86577 19.6918 3.86768 19.1096 4.22462 18.7527C4.5813 18.396 5.15715 18.4002 5.54664 18.7207C9.2198 21.7436 14.6735 21.539 18.1056 18.1069C21.7553 14.4572 21.7553 8.52141 18.1056 4.87172C14.6736 1.43973 9.22015 1.23501 5.547 4.25756C5.1573 4.57823 4.58115 4.58242 4.22429 4.22556C3.86742 3.86869 3.86568 3.28633 4.25023 2.9595C8.64133 -0.772461 15.2527 -0.565828 19.3979 3.5794C23.7606 7.9421 23.7606 15.0365 19.3979 19.3992C17.2188 21.5783 14.3534 22.6701 11.488 22.6701Z" fill="#000036"/>
<path id="Vector_3" d="M15.2714 9.77561C15.1734 8.6348 14.1752 7.78365 13.0299 7.78365H12.2411V7.49845C12.2322 7.11966 11.9248 6.81664 11.546 6.82109C11.1672 6.82555 10.8642 7.13749 10.8686 7.51182V7.77919H10.0843V7.5029C10.0843 7.12412 9.77682 6.82109 9.39804 6.82109C9.01925 6.82109 8.71623 7.12858 8.71623 7.50736V7.77919H8.38646C8.00768 7.77919 7.7002 8.08668 7.7002 8.46546C7.7002 8.84425 8.00768 9.15173 8.38646 9.15173H8.72068L8.7296 13.7818H8.38646C8.00768 13.7818 7.7002 14.0893 7.7002 14.4681C7.7002 14.8469 8.00768 15.1543 8.38646 15.1543H8.73405V15.4796C8.73405 15.8584 9.04154 16.1615 9.42032 16.1615C9.7991 16.1615 10.1021 15.854 10.1021 15.4752V15.1543H10.8731V15.4841C10.882 15.8629 11.1895 16.1659 11.5682 16.1615C11.947 16.1615 12.2501 15.8451 12.2456 15.4707V15.1543H13.0344C14.1796 15.1543 15.1778 14.3032 15.2759 13.1624C15.3338 12.5073 15.0976 11.9057 14.6876 11.469C15.0976 11.0367 15.3338 10.4307 15.2759 9.77561H15.2714ZM13.0968 9.15173C13.5736 9.15173 13.9568 9.56171 13.9078 10.0474C13.8677 10.4708 13.4844 10.7827 13.0611 10.7827H10.0888V9.15173H13.0968ZM13.0611 13.7818H10.0977V12.1508H13.1012C13.578 12.1508 13.9613 12.5608 13.9123 13.0465C13.8721 13.4699 13.4889 13.7818 13.0656 13.7818H13.0611Z" fill="#000036"/>
</g>
</svg>
