<svg width="25" height="24" viewBox="0 0 25 24" fill="none" xmlns="http://www.w3.org/2000/svg">
<g id="Bag_alt">
<path id="Vector 9" d="M8.07422 12L8.07422 8C8.07422 5.79086 9.86508 4 12.0742 4V4C14.2834 4 16.0742 5.79086 16.0742 8L16.0742 12" stroke="#000036" stroke-width="2" stroke-linecap="round"/>
<path id="Rectangle 1" d="M3.76857 12.6678C3.91364 10.9269 3.98618 10.0565 4.56027 9.52824C5.13435 9 6.00782 9 7.75475 9H16.3937C18.1406 9 19.0141 9 19.5882 9.52824C20.1623 10.0565 20.2348 10.9269 20.3799 12.6678L20.8937 18.8339C20.9782 19.8474 21.0204 20.3542 20.7233 20.6771C20.4262 21 19.9177 21 18.9006 21H5.24782C4.23076 21 3.72224 21 3.42514 20.6771C3.12803 20.3542 3.17026 19.8474 3.25473 18.8339L3.76857 12.6678Z" stroke="#000036" stroke-width="2"/>
</g>
</svg>
