<svg width="120" height="40" viewBox="0 0 120 40" fill="none" xmlns="http://www.w3.org/2000/svg">
<g id="Binance Coin">
<path id="Vector" d="M14.118 21.5962L18.0024 25.4806L21.8883 21.5947L24.1488 23.852L24.1472 23.8536L18.0024 30L11.8575 23.8567L11.8544 23.8536L14.118 21.5962ZM20.2944 19.9992L18.0024 22.2944L15.7103 20.0039L15.7071 19.9992L16.1115 19.5948L16.3074 19.4005L18.0024 17.7056L20.2944 19.9992ZM23.4806 20.0008L25.7411 17.7403L28 20.0008L25.7411 22.2597L23.4806 20.0008ZM8 20.0008L10.2605 17.7403L12.5194 20.0008L10.2605 22.2597L8 20.0008ZM14.118 18.4038L18.0024 14.521L21.8883 18.4069L24.1472 16.1464L18.0024 10L11.8575 16.1449L14.118 18.4038Z" fill="#F3BA2F"/>
<g id="Group">
<path id="Vector_2" d="M32.168 14.7695H37.2996C38.5726 14.7695 39.5356 15.0993 40.1886 15.7589C40.6849 16.252 40.9587 16.9264 40.9455 17.6256V17.6569C40.9504 17.9405 40.9109 18.2225 40.8284 18.4946C40.7559 18.7287 40.6487 18.9497 40.5135 19.1542C40.3865 19.3471 40.2331 19.5202 40.0583 19.6686C39.8868 19.8154 39.6989 19.944 39.4993 20.0479C40.0765 20.2491 40.5959 20.5888 41.0114 21.0373C41.3792 21.4545 41.5622 22.0316 41.5622 22.7687V22.8001C41.5721 23.2601 41.4732 23.7152 41.2703 24.1291C41.0741 24.5101 40.7872 24.8366 40.4343 25.079C40.0352 25.3461 39.5917 25.539 39.1234 25.6478C38.5677 25.7798 37.9971 25.8424 37.4266 25.8375H32.168V14.7695ZM36.7851 19.2449C37.2287 19.2663 37.6706 19.1707 38.0664 18.9678C38.3797 18.7848 38.5644 18.4369 38.538 18.0741V18.0428C38.5545 17.7097 38.3995 17.3898 38.1274 17.1968C37.8536 17.0022 37.4579 16.905 36.9418 16.905H34.5408V19.2449H36.7851ZM37.4332 23.7054C37.8751 23.7301 38.3154 23.6295 38.7029 23.4135C39.0096 23.2173 39.186 22.8677 39.1613 22.5032V22.4719C39.1728 22.1273 39.0129 21.7975 38.7342 21.5947C38.4506 21.3753 37.9922 21.2649 37.359 21.2649H34.5408V23.7054H37.4332Z" fill="#F3BA2F"/>
<path id="Vector_3" d="M44.6196 14.7695H47.0552V25.8408H44.6196V14.7695Z" fill="#F3BA2F"/>
<path id="Vector_4" d="M50.7412 14.7695H52.9871L58.1781 21.5831V14.7695H60.5823V25.8408H58.5096L53.1487 18.8029V25.8408H50.7412V14.7695Z" fill="#F3BA2F"/>
<path id="Vector_5" d="M67.9557 14.6914H70.1983L74.9424 25.8418H72.3997L71.3872 23.3584H66.7058L65.6933 25.8418H63.21L67.9557 14.6914ZM70.5182 21.2082L69.0441 17.6167L67.5765 21.2082H70.5182Z" fill="#F3BA2F"/>
<path id="Vector_6" d="M77.5752 14.7695H79.8211L85.0088 21.5831V14.7695H87.413V25.8408H85.3402L79.9794 18.8029V25.8408H77.5752V14.7695Z" fill="#F3BA2F"/>
<path id="Vector_7" d="M96.1803 26.0369C95.4036 26.0435 94.6352 25.8934 93.9179 25.595C92.5558 25.0327 91.4774 23.9427 90.9283 22.574C90.6414 21.865 90.4962 21.1081 90.5012 20.343V20.3116C90.488 18.8061 91.0684 17.3534 92.1155 16.27C92.63 15.7407 93.2484 15.3218 93.9294 15.0366C94.6715 14.7298 95.4663 14.5765 96.2693 14.5864C96.7442 14.5831 97.2175 14.626 97.6841 14.7134C98.0832 14.7892 98.474 14.9063 98.8483 15.0613C99.188 15.2048 99.5129 15.3845 99.813 15.5989C100.107 15.8083 100.382 16.0408 100.637 16.2947L99.0891 18.0822C98.6933 17.7178 98.2498 17.4078 97.7699 17.1637C97.2983 16.9378 96.7822 16.8257 96.2594 16.8339C95.3805 16.8241 94.5395 17.1934 93.9509 17.8464C93.6623 18.168 93.4364 18.5423 93.2847 18.9463C93.1264 19.3734 93.0456 19.8268 93.0489 20.2836V20.3149C93.0472 20.7701 93.1264 21.2235 93.2847 21.6506C93.4347 22.0563 93.659 22.4322 93.9443 22.7571C94.528 23.4183 95.3706 23.7943 96.2528 23.786C96.8085 23.8042 97.3593 23.6838 97.8573 23.4381C98.3322 23.1792 98.7692 22.861 99.1616 22.4883L100.712 24.0548C100.438 24.3516 100.141 24.627 99.8262 24.8793C99.5162 25.125 99.1798 25.3344 98.8219 25.5043C98.441 25.684 98.0403 25.8159 97.6281 25.8984C97.1515 25.994 96.6667 26.0402 96.1803 26.0369Z" fill="#F3BA2F"/>
<path id="Vector_8" d="M103.585 14.7695H111.918V16.9363H105.981V19.1822H111.209V21.349H105.99V23.674H112V25.8408H103.59L103.585 14.7695Z" fill="#F3BA2F"/>
</g>
</g>
</svg>
