<svg width="120" height="40" viewBox="0 0 120 40" fill="none" xmlns="http://www.w3.org/2000/svg">
<mask id="mask0_4161_63148" style="mask-type:luminance" maskUnits="userSpaceOnUse" x="20" y="9" width="81" height="22">
<path d="M100.902 9H20V30.337H100.902V9Z" fill="white"/>
</mask>
<g mask="url(#mask0_4161_63148)">
<path d="M29.6709 30.4508C29.6709 30.4508 38.5439 27.3158 38.5439 15.9728V11.9258C38.5439 11.4698 38.2209 11.1468 37.7839 11.0328C34.9339 10.9188 32.1979 10.3678 29.6709 9.13281C27.1439 10.2538 24.4079 10.9378 21.5579 11.0328C21.1209 11.0328 20.7979 11.4888 20.7979 11.9258V15.9728C20.7979 27.3158 29.6709 30.4508 29.6709 30.4508Z" fill="#B48100"/>
<path d="M33.281 17.5319C33.167 16.2969 32.179 15.8409 30.868 15.7269V13.9219H29.766V15.6129H28.892V13.9219H27.904V15.6129H25.814V16.7339H27.125V22.2439H26.023V23.4789H27.771V25.2839H28.759V23.4789H29.519V25.1699H30.621V23.4789C32.369 23.3649 33.585 22.9089 33.68 21.3509C33.908 20.3439 33.357 19.4509 32.369 19.2229H32.255C32.958 18.8809 33.395 18.2159 33.281 17.5319ZM31.742 21.2369C31.742 22.5859 29.557 22.3579 28.892 22.3579V20.1159C29.671 20.0019 31.742 19.7929 31.742 21.2369ZM31.305 17.9879C31.305 19.1089 29.557 18.9949 28.892 18.9949V16.8669C29.557 16.8669 31.305 16.7529 31.305 17.9879Z" fill="#FBFBFD"/>
<path d="M56.1949 23.2709C56.1949 24.0499 56.0809 24.8479 55.6439 25.5129C55.3209 26.0829 54.8839 26.6339 54.2189 26.9759C53.5539 27.3179 52.9079 27.6409 52.2429 27.7549C51.4829 27.8689 50.7039 27.9829 49.9439 27.9829H43.4839V11.5859H49.9439C50.6089 11.5859 51.2549 11.6999 51.9199 11.8139C52.5849 11.9279 53.1169 12.1559 53.6679 12.4789C54.2189 12.8209 54.6559 13.2579 54.9789 13.7139C55.3019 14.3789 55.5299 15.0629 55.4159 15.8419C55.4159 16.6209 55.1879 17.4189 54.6559 18.0839C54.1049 18.6539 53.4589 19.0909 52.6799 19.3189C53.1169 19.4329 53.5539 19.5469 53.9909 19.7749C54.4279 20.0029 54.7509 20.2309 55.0929 20.5539C55.4159 20.8959 55.6439 21.2189 55.7579 21.6749C56.0809 22.2639 56.1949 22.7009 56.1949 23.2709ZM51.8059 16.2979C51.8059 15.7279 51.5779 15.2909 51.1409 15.0629C50.5899 14.7209 49.9439 14.6069 49.2789 14.7209H47.4169V18.0839H49.5069C50.0579 18.0839 50.7039 17.9699 51.1599 17.6279C51.4829 17.3239 51.8059 16.8679 51.8059 16.2979ZM52.2429 22.9289C52.3569 22.3589 52.0149 21.8079 51.4829 21.4659C50.8179 21.1239 50.1719 21.0099 49.5069 21.0099H47.3219V24.8289H49.5069C49.8299 24.8289 50.1719 24.8289 50.4949 24.7149C50.8179 24.7149 51.1599 24.6009 51.3689 24.3729C51.9199 24.1639 52.3569 23.6129 52.2429 22.9289Z" fill="#B48100"/>
<path d="M61.344 12.7056C61.344 13.0476 61.23 13.2756 61.116 13.4846C61.002 13.7126 60.888 13.9406 60.679 14.1496C60.451 14.3776 60.242 14.4916 60.014 14.6056C59.786 14.7196 59.463 14.7196 59.14 14.7196C58.589 14.7196 58.038 14.4916 57.601 14.1496C57.164 13.8076 56.936 13.2566 56.936 12.6866C56.936 12.4586 57.05 12.1166 57.164 11.9076C57.278 11.6796 57.392 11.4516 57.601 11.2426C57.829 11.0146 58.038 10.9006 58.266 10.7866C58.494 10.6726 58.817 10.5586 59.14 10.5586C59.463 10.5586 59.691 10.5586 60.014 10.6726C60.242 10.7866 60.451 10.9006 60.679 11.1286C60.907 11.3566 61.002 11.5846 61.116 11.7936C61.344 12.1546 61.344 12.4776 61.344 12.7056ZM57.278 28.0956V16.4106H61.002V28.0956H57.278Z" fill="#B48100"/>
<path d="M67.9178 19.3371V23.8211C67.9178 24.2771 68.0318 24.7141 68.2408 25.0561C68.5638 25.3981 68.9058 25.5121 69.3428 25.5121C69.5708 25.5121 69.7798 25.5121 69.8938 25.5121C70.1218 25.5121 70.2168 25.3981 70.4448 25.3981V28.2101C70.1218 28.3241 69.7798 28.4381 69.4568 28.4381C69.0198 28.5521 68.6968 28.5521 68.2598 28.5521C67.5948 28.5521 66.9488 28.4381 66.2838 28.2101C65.8468 27.9821 65.4098 27.7541 65.0868 27.3171C64.7638 26.9751 64.5358 26.5381 64.4218 25.9681C64.3078 25.3981 64.3078 24.7331 64.3078 24.1631V19.2231H62.4458V16.4111H64.1938V13.3711H67.9178V16.4111H70.5398V19.2231H67.9178V19.3371Z" fill="#B48100"/>
<path d="M84.0298 28.0934C82.9278 28.3214 81.7308 28.5494 80.5148 28.4354C79.3178 28.4354 78.1018 28.2074 76.9998 27.7704C75.8978 27.4284 75.0238 26.7634 74.1498 25.9654C73.3898 25.1864 72.7248 24.2744 72.2878 23.1534C71.4138 20.7974 71.4138 18.3274 72.2878 15.9714C72.7248 14.9644 73.3898 13.9574 74.1498 13.1594C74.9098 12.3804 75.8978 11.8104 76.9998 11.4684C78.1018 11.0124 79.2988 10.8984 80.4008 10.8984C81.5978 10.8984 82.8138 11.1264 83.9158 11.4684C84.9038 11.8104 85.7778 12.3614 86.5378 13.0454L84.2388 16.1994C83.8018 15.7434 83.2508 15.3064 82.6998 15.0784C82.0348 14.7364 81.3888 14.6224 80.6098 14.6224C79.9448 14.6224 79.2988 14.7364 78.7478 14.9644C77.5508 15.5344 76.6578 16.4274 76.2208 17.6624C75.9928 18.3274 75.8978 19.0114 75.8978 19.6764C75.8978 20.3414 76.0118 21.1394 76.2208 21.8044C76.4488 22.3744 76.7718 22.9254 77.2088 23.4954C77.6458 23.9514 78.1968 24.3884 78.7478 24.6164C79.4128 24.8444 80.1728 25.0724 80.8378 24.9584C81.2748 24.9584 81.7118 24.9584 82.1488 24.8444C82.4718 24.7304 82.9088 24.6164 83.2508 24.5024V21.4624H80.1918V18.2134H86.8798V26.9724C85.9868 27.5234 84.9988 27.8654 84.0298 28.0934Z" fill="#B48100"/>
<path d="M100.902 22.2637C100.902 23.1567 100.788 24.0687 100.351 24.8477C100.028 25.6267 99.5909 26.3107 99.0399 26.8617C98.4889 27.4317 97.7289 27.8687 97.0639 28.0967C95.5249 28.6667 93.7769 28.6667 92.2379 28.0967C91.4779 27.7547 90.8129 27.4317 90.2619 26.8617C89.7109 26.2917 89.1599 25.6267 88.9509 24.8477C88.2859 23.1567 88.2859 21.3707 88.9509 19.6797C89.2739 18.9007 89.7109 18.3307 90.2619 17.7797C90.8129 17.2097 91.5729 16.8867 92.2379 16.5447C93.7769 15.9747 95.5249 15.9747 97.0639 16.5447C97.8239 16.7727 98.4889 17.2097 99.0399 17.7797C99.5909 18.3497 100.142 18.9007 100.351 19.6797C100.788 20.4587 100.902 21.3517 100.902 22.2637ZM97.2729 22.2637C97.2729 21.9217 97.1589 21.4847 97.0449 21.1427C96.9309 20.8007 96.7219 20.4777 96.4939 20.2497C96.2659 20.0217 95.9429 19.7937 95.6199 19.5847C94.8599 19.2427 94.0809 19.2427 93.3209 19.5847C92.9979 19.6987 92.6559 19.9267 92.4469 20.2497C92.2189 20.4777 92.0099 20.8197 91.8959 21.1427C91.7819 21.4847 91.6679 21.9217 91.6679 22.2637C91.6679 22.6057 91.7819 23.0427 91.8959 23.3847C92.0099 23.7267 92.2189 24.0497 92.4469 24.3917C92.6749 24.7337 92.9979 24.9617 93.3209 25.0567C94.0809 25.3987 94.8599 25.3987 95.6199 25.0567C95.9429 24.9427 96.2849 24.6007 96.4939 24.3917C96.7219 24.0497 96.9309 23.7267 97.0449 23.3847C97.2729 22.9287 97.2729 22.5867 97.2729 22.2637Z" fill="#B48100"/>
</g>
</svg>
