<svg width="160" height="40" viewBox="0 0 160 40" fill="none" xmlns="http://www.w3.org/2000/svg">
<path d="M100.931 14.3104C100.908 13.8016 101.187 13.3371 101.674 13.1159C102.324 12.8284 103.113 13.0938 103.415 13.7132C103.716 14.3325 103.438 15.0846 102.788 15.3721C102.602 15.4606 102.417 15.4827 102.231 15.4827C101.72 15.5049 101.256 15.2173 101.047 14.7749C100.954 14.6201 100.931 14.4652 100.931 14.3104ZM101.024 16.5445H103.438V24.8394H101.024V16.5445ZM36.6418 13.7795H32V24.8394H36.9668C39.5662 24.8394 40.9587 23.5343 40.9587 21.7869C41.0284 20.3712 39.8911 19.1767 38.4057 19.1104V18.9998C39.6358 18.8228 40.5178 17.8053 40.4946 16.633C40.4946 14.9519 39.1948 13.7795 36.6418 13.7795ZM38.0112 16.9869C38.0112 17.8717 37.2221 18.3804 36.2705 18.3804L34.4138 18.4025V15.6376H36.3169C37.4077 15.6376 38.0112 16.1021 38.0112 16.9869ZM38.3825 21.5214C38.3825 22.3398 37.8255 22.8928 36.4562 22.8928H34.437V19.973H36.4562C37.3845 19.8403 38.2433 20.4597 38.3825 21.3445C38.3593 21.4108 38.3825 21.4551 38.3825 21.5214ZM42.1424 24.8394H44.6026L44.5562 13.7795H42.1424V24.8394ZM45.8559 20.7251C45.8559 18.1592 47.5037 16.4339 50.1496 16.4339C52.7954 16.4339 54.4433 18.1371 54.4433 20.7251C54.4433 23.3131 52.7954 24.9942 50.1496 24.9942C47.5037 24.9942 45.8559 23.2689 45.8559 20.7251ZM51.9599 20.703C51.9599 19.2652 51.3332 18.1813 50.1496 18.1813C48.9659 18.1813 48.2928 19.2431 48.2928 20.703C48.2928 22.1629 48.9195 23.2025 50.1496 23.2025C51.3797 23.2246 51.9599 22.1629 51.9599 20.703ZM59.6189 16.4339C56.9731 16.4339 55.3484 18.1813 55.3484 20.7251C55.3484 23.2468 56.9499 24.9942 59.6189 24.9942C61.9166 24.9942 63.3788 23.7113 63.4948 21.7869H61.2203C61.1739 22.5832 60.4777 23.1804 59.6421 23.1583C58.5049 23.1583 57.7854 22.2071 57.7854 20.6809C57.7854 19.1546 58.5281 18.2256 59.6421 18.2256C60.4777 18.2035 61.1739 18.8228 61.2203 19.597H63.4948C63.402 17.6947 61.8934 16.4339 59.6189 16.4339ZM64.7481 13.7795H67.1619V19.6855H67.2779L70.063 16.5445H72.8249L69.6221 20.1279L73.0106 24.8173H70.1791L67.8117 21.4993L67.1619 22.2071V24.8394H64.7481V13.7795ZM77.2811 16.4339C74.6352 16.4339 73.0106 18.1813 73.0106 20.7251C73.0106 23.2468 74.612 24.9942 77.3043 24.9942C79.602 24.9942 81.0642 23.7113 81.1802 21.7869H78.9057C78.8593 22.5832 78.1398 23.1804 77.3275 23.1583C76.1903 23.1583 75.4708 22.2071 75.4708 20.6809C75.4708 19.1546 76.2135 18.2256 77.3275 18.2256C78.163 18.2035 78.8593 18.8228 78.9057 19.597H81.157C81.0874 17.6947 79.5556 16.4339 77.2811 16.4339ZM84.8241 24.8394H82.4335V13.7795H84.7544V18.0044H84.8705C85.265 16.9869 86.3327 16.3454 87.4699 16.4339C89.2802 16.4339 90.4871 17.6062 90.4871 19.5528V24.8394H88.0734V19.973C88.143 19.5528 88.0037 19.1325 87.702 18.8228C87.4003 18.5131 86.9593 18.3362 86.5183 18.3583C85.7989 18.3362 85.149 18.7565 84.9169 19.3979C84.8473 19.597 84.8241 19.8182 84.8473 20.0394C84.8241 20.0394 84.8241 24.8394 84.8241 24.8394ZM94.9201 19.9509C93.2026 20.1058 91.6476 20.6809 91.6476 22.5168C91.6476 24.1537 92.8777 24.9942 94.5487 24.9942C95.5931 25.0606 96.5911 24.5518 97.1017 23.6892H97.1713V24.8394H99.4691V19.2431C99.4691 17.2523 97.7052 16.4339 95.7788 16.4339C93.69 16.4339 92.3206 17.385 91.9957 18.8892L94.2238 19.0661C94.4559 18.4468 95.0825 18.0707 95.7788 18.1371C96.5911 18.1371 97.0553 18.5353 97.0553 19.221C97.0321 19.7518 96.4519 19.8182 94.9201 19.9509ZM97.0553 20.9463V21.8753C97.0321 22.2956 96.8232 22.6938 96.4751 22.9813C96.1269 23.2689 95.686 23.4016 95.245 23.3574C94.5023 23.3574 93.9685 23.0256 93.9685 22.3841C93.9685 21.7426 94.5255 21.4108 95.3842 21.3002C95.9645 21.2781 96.5215 21.1454 97.0553 20.9463ZM104.993 24.8394H107.453L107.407 20.0394C107.314 19.1988 107.94 18.4468 108.799 18.3583C108.892 18.3583 108.962 18.3362 109.054 18.3583C109.867 18.3141 110.563 18.9334 110.609 19.7076C110.609 19.7961 110.609 19.8846 110.586 19.973V24.8394H113V19.5528C113 17.6283 111.816 16.4339 109.983 16.4339C108.846 16.3675 107.778 17.009 107.36 18.0044H107.267V16.5445H104.97V24.8394H104.993Z" fill="#B48100"/>
<path opacity="0.6" d="M139.031 17.1077H136.818V24.8554H139.143V20.2068C139.076 19.6489 139.411 19.1324 139.947 18.9052C140.126 18.8225 140.305 18.7812 140.506 18.7812C141.042 18.7605 141.556 19.0704 141.713 19.5456C141.78 19.6903 141.78 19.8555 141.78 20.0208V24.8554H144.037V20.1241C143.97 19.463 144.484 18.8638 145.199 18.7812C145.266 18.7812 145.333 18.7812 145.378 18.7812C146.071 18.7605 146.652 19.2357 146.674 19.8762C146.674 19.9382 146.674 20.0002 146.674 20.0621V24.8554H148.999V19.6903C149.043 18.306 147.859 17.149 146.362 17.1077C145.311 17.087 144.35 17.6035 143.881 18.4713H143.747C143.456 17.5416 142.495 16.9424 141.467 17.0044C140.417 16.9631 139.478 17.5622 139.143 18.4713H139.031V17.1077ZM122.738 17.0044C120.191 17.0044 118.626 18.6366 118.626 21.0125C118.626 23.3678 120.168 25 122.783 25C124.996 25 126.404 23.8017 126.515 22.0042H124.325C124.281 22.748 123.588 23.3058 122.805 23.2852C121.733 23.2852 121.018 22.3968 121.018 20.9712C121.018 19.5456 121.733 18.6779 122.805 18.6779C123.61 18.6572 124.281 19.2357 124.325 19.9588H126.471C126.404 18.182 124.929 17.0044 122.738 17.0044ZM115.386 22.9133C114.871 23.3885 114.871 24.1529 115.386 24.6281C115.631 24.8554 115.967 24.9793 116.302 24.9793C117.017 24.9793 117.598 24.4422 117.598 23.781C117.598 23.1199 117.017 22.5827 116.302 22.5827C115.967 22.5621 115.631 22.7067 115.386 22.9133ZM127.365 21.0125C127.365 18.6159 128.952 17.0044 131.499 17.0044C134.047 17.0044 135.612 18.5953 135.612 21.0125C135.612 23.4298 134.047 25 131.499 25C128.929 25 127.365 23.3885 127.365 21.0125ZM133.243 20.9919C133.243 19.6489 132.639 18.6366 131.499 18.6366C130.36 18.6366 129.711 19.6283 129.711 20.9919C129.711 22.3555 130.315 23.3265 131.499 23.3265C132.661 23.3472 133.243 22.3555 133.243 20.9919Z" fill="#B48100"/>
<path d="M12.1694 17L11.5527 17.7914C10.8332 18.6619 10.8127 20.1127 11.5116 21.036C11.5321 21.0623 11.5527 21.0887 11.5527 21.0887L16.5889 27.6043C16.7122 27.7626 16.8561 27.8945 17 28V20.0863L12.1694 17Z" fill="#B48100"/>
<path d="M25.6357 17L26.3552 17.7914C27.1946 18.6619 27.2185 20.1127 26.4032 21.036C26.3792 21.0623 26.3552 21.0887 26.3552 21.0887L20.4796 27.6043C20.3357 27.7626 20.1679 27.8945 20 28V20.0863C20 20.1127 25.6357 17 25.6357 17Z" fill="#B48100"/>
<path d="M24 16.3947L20.1042 12.6453C19.2639 11.7932 17.838 11.7932 16.9722 12.5966C16.9468 12.621 16.9468 12.621 16.9213 12.6453L13 16.3947L18.4745 18.9998C18.4745 19.0242 24 16.3947 24 16.3947Z" fill="#B48100"/>
</svg>
