<svg width="150" height="40" viewBox="0 0 150 40" fill="none" xmlns="http://www.w3.org/2000/svg">
<path d="M59.9815 14.0247C56.3845 14.0247 53.5754 16.8036 53.5754 20.5229C53.5754 24.2421 56.3144 26.9958 59.9815 26.9958C63.6486 26.9958 66.433 24.1959 66.433 20.5019C66.433 16.8288 63.694 14.0247 59.9815 14.0247ZM60.0063 24.3176C57.9561 24.3176 56.4587 22.6973 56.4587 20.5229C56.4587 18.3274 57.9314 16.7071 59.9815 16.7071C62.0522 16.7071 63.5538 18.3526 63.5538 20.5271C63.5538 22.6973 62.0522 24.3176 60.0063 24.3176ZM67.2209 16.854H69.007V26.7607H71.8656V14.264H67.2209V16.854ZM46.3814 16.7071C47.8829 16.7071 49.075 17.6474 49.5246 19.0494H52.5524C52.0037 16.0564 49.5741 14.0247 46.4061 14.0247C42.8091 14.0247 40 16.8036 40 20.5229C40 24.2463 42.739 27 46.4061 27C49.4999 27 51.979 24.9683 52.5276 21.9501H49.5246C49.3301 22.6371 48.92 23.2404 48.3569 23.6679C47.7938 24.0954 47.1086 24.3236 46.4061 24.3176C44.3354 24.3176 42.8793 22.6973 42.8793 20.5229C42.8793 18.3274 44.3065 16.7071 46.3814 16.7071ZM121.518 19.3181L119.423 19.0033C118.424 18.8563 117.711 18.5205 117.711 17.7229C117.711 16.854 118.639 16.4216 119.897 16.4216C121.283 16.4216 122.166 17.0219 122.352 18.0126H125.115C124.806 15.4981 122.9 14.0247 119.971 14.0247C116.948 14.0247 114.947 15.5989 114.947 17.8195C114.947 19.9436 116.255 21.1777 118.899 21.5639L120.994 21.8787C122.021 22.0215 122.591 22.4328 122.591 23.2052C122.591 24.1959 121.592 24.6073 120.211 24.6073C118.519 24.6073 117.566 23.9063 117.422 22.8442H114.613C114.877 25.2831 116.758 27 120.182 27C123.304 27 125.379 25.5476 125.379 23.0625C125.379 20.8377 123.878 19.6791 121.518 19.3181ZM70.4342 9.12174C70.1939 9.11313 69.9544 9.15448 69.7302 9.24324C69.5061 9.332 69.3021 9.46632 69.1307 9.638C68.9593 9.80967 68.8241 10.0151 68.7333 10.2417C68.6425 10.4684 68.5981 10.7115 68.6028 10.9562C68.6028 12.0224 69.3865 12.7948 70.4342 12.7948C70.6753 12.804 70.9156 12.763 71.1405 12.6742C71.3654 12.5854 71.5701 12.4508 71.742 12.2786C71.9139 12.1065 72.0494 11.9003 72.1402 11.6729C72.231 11.4455 72.2751 11.2016 72.2699 10.9562C72.2745 10.7111 72.23 10.4676 72.139 10.2407C72.0479 10.0138 71.9123 9.80817 71.7405 9.63643C71.5686 9.46469 71.3642 9.33046 71.1395 9.24196C70.9149 9.15346 70.6749 9.11255 70.4342 9.12174ZM112.373 18.5457C112.373 15.8382 110.756 14.0289 107.324 14.0289C104.086 14.0289 102.275 15.6954 101.92 18.2561H104.754C104.899 17.2654 105.662 16.4426 107.279 16.4426C108.731 16.4426 109.444 17.0933 109.444 17.8909C109.444 18.9319 108.137 19.1964 106.516 19.3643C104.325 19.6077 101.607 20.3801 101.607 23.2808C101.607 25.5266 103.257 26.9748 105.872 26.9748C107.922 26.9748 109.209 26.1059 109.853 24.729C109.948 25.959 110.851 26.7565 112.113 26.7565H113.78V24.1707H112.377L112.373 18.5457ZM109.568 21.6856C109.568 23.3521 108.137 24.5821 106.396 24.5821C105.324 24.5821 104.416 24.1203 104.416 23.1548C104.416 21.9249 105.872 21.5891 107.204 21.4422C108.492 21.3246 109.205 21.035 109.564 20.4767L109.568 21.6856ZM94.3923 14.0247C92.8 14.0247 91.4635 14.7048 90.5148 15.8382V9H87.6561V26.7565H90.4611V25.1152C91.4181 26.299 92.7711 27 94.3923 27C97.8242 27 100.419 24.2463 100.419 20.5229C100.419 16.8036 97.7789 14.0247 94.3964 14.0247H94.3923ZM93.9674 24.3176C91.9173 24.3176 90.4199 22.6973 90.4199 20.5229C90.4199 18.3526 91.942 16.7071 93.988 16.7071C96.0629 16.7071 97.5149 18.3274 97.5149 20.5271C97.5149 22.6973 96.0134 24.3176 93.9674 24.3176ZM80.821 14.0247C78.9647 14.0247 77.7479 14.7971 77.0301 15.8843V14.2682H74.1963V26.7565H77.0549V19.9687C77.0549 18.0588 78.247 16.7071 80.0084 16.7071C81.6501 16.7071 82.6772 17.8909 82.6772 19.6035V26.7565H85.5317V19.3895C85.5317 16.2495 83.9395 14.0247 80.821 14.0247ZM139 20.1115C139 16.5392 136.426 14.0247 132.978 14.0247C129.306 14.0247 126.617 16.8288 126.617 20.5229C126.617 24.4142 129.496 27 133.023 27C136.001 27 138.332 25.2118 138.93 22.6763H135.952C135.523 23.7845 134.475 24.4142 133.068 24.4142C131.233 24.4142 129.851 23.2556 129.546 21.2239H139V20.1115ZM129.71 19.146C130.164 17.4081 131.451 16.5644 132.928 16.5644C134.545 16.5644 135.787 17.5047 136.071 19.146H129.71Z" fill="#B48100"/>
<path d="M22 30C27.5228 30 32 25.5228 32 20C32 14.4772 27.5228 10 22 10C16.4772 10 12 14.4772 12 20C12 25.5228 16.4772 30 22 30Z" fill="#B48100"/>
<path d="M22.1024 16.4804C23.5376 16.4804 24.6762 17.3518 25.1086 18.6477H28C27.4762 15.8771 25.154 14 22.1255 14C18.6862 14 16 16.5699 16 20.0115C16 23.453 18.619 26 22.1255 26C25.0862 26 27.4545 24.1229 27.9788 21.3294H25.1083C24.6983 22.6255 23.5607 23.5196 22.1245 23.5196C20.1429 23.5196 18.754 22.0222 18.754 20.0115C18.755 17.9778 20.1214 16.4804 22.1024 16.4804Z" fill="#FBFBFD"/>
</svg>
