<svg width="114" height="40" viewBox="0 0 114 40" fill="none" xmlns="http://www.w3.org/2000/svg">
<path fill-rule="evenodd" clip-rule="evenodd" d="M86.6157 12.2024V25.9537C86.6028 26.1724 86.6929 26.3911 86.8472 26.5583C87.0016 26.7255 87.2203 26.8156 87.439 26.8156H87.6834C87.9149 26.8156 88.1336 26.7255 88.288 26.5583C88.4423 26.3911 88.5324 26.1724 88.5324 25.9537V12.2024H90.1275V26.3139C90.1275 27.3816 89.2785 28.2435 88.2108 28.2692H86.9887C86.4613 28.2692 85.9596 28.0762 85.5866 27.7032C85.2135 27.3301 85.0077 26.8413 85.0077 26.3139V12.2024H86.6157ZM97.9615 12.048C99.0292 12.0737 99.8911 13.0771 99.8911 14.1577V15.4312C99.8911 15.6113 99.7753 15.7656 99.5952 15.8171L98.2702 16.1901V14.3635C98.2702 13.9004 97.8843 13.5145 97.4212 13.5145C96.9581 13.5145 96.5722 13.8875 96.5722 14.3635V15.8814C96.5722 16.8205 97.2669 18.0168 97.2669 18.0168L99.1707 21.683C99.9425 23.1366 99.8782 24.2043 99.8782 24.2043V26.2367C99.8782 26.7641 99.6724 27.2787 99.2993 27.6646C98.9263 28.0505 98.4117 28.2563 97.8715 28.2692H96.8681C95.7875 28.2049 94.9385 27.3173 94.9385 26.2367V23.9598C94.9385 23.7798 95.0543 23.6254 95.2344 23.5739L96.5594 23.2009V25.9795C96.5594 26.4425 96.9453 26.8156 97.4212 26.8156C97.8843 26.8156 98.2702 26.4297 98.2574 25.9537V24.1399C98.2574 23.2137 97.5627 21.9788 97.5627 21.9788L95.6846 18.3127C94.9128 16.8591 94.9771 15.7914 94.9771 15.7914V14.1577C94.9771 13.0514 95.8647 12.048 96.9839 12.048H97.9615ZM67.8475 12.048C68.928 12.0995 69.777 12.9999 69.777 14.0805V26.2882C69.7642 27.3559 68.9152 28.2306 67.8475 28.2821H66.6254C65.532 28.2692 64.6444 27.3816 64.6316 26.2882V14.0676C64.6316 13.5402 64.8374 13.0257 65.2104 12.6398C65.5835 12.2538 66.098 12.048 66.6383 12.0352L67.8475 12.048ZM49.5167 12.2024L49.1307 13.5402C49.0793 13.7203 48.9249 13.8361 48.7448 13.8361H46.1849V18.9558H48.8349L48.449 20.2937C48.3975 20.4609 48.2431 20.5895 48.0631 20.5895H46.1849V26.494H49.5167L49.1436 27.819C49.0922 27.9991 48.9378 28.1148 48.7577 28.1148H44.5898V12.2024H49.5167ZM77.9584 12.2024C79.0647 12.2152 79.9394 13.1028 79.9394 14.1963V26.1081C79.9394 27.2015 79.0518 28.102 77.9584 28.102H74.8711V12.2024H77.9584ZM56.939 17.3222L58.4055 12.2024H60.0392L57.7623 20.165L60.0521 28.1277H58.4184L56.939 22.9951L55.4726 28.1148H53.8389L56.1158 20.165L53.826 12.2024H55.4597L56.939 17.3222ZM67.3072 26.8413C67.5388 26.8413 67.7574 26.7384 67.9118 26.5712C68.0662 26.404 68.1562 26.1853 68.1434 25.9537V14.3635C68.1562 14.1319 68.0662 13.9133 67.9118 13.746C67.7574 13.5788 67.5388 13.4888 67.3072 13.4759H67.0628C66.5868 13.5016 66.2138 13.8875 66.2138 14.3635V25.9537C66.2138 26.4297 66.5868 26.8156 67.0628 26.8413H67.3072ZM77.5082 26.5069C77.9584 26.5069 78.3572 26.2753 78.3572 25.6579V14.6594C78.3572 14.0676 77.9584 13.8361 77.5082 13.8361H76.4662V26.5069H77.5082Z" fill="#B48100"/>
<path d="M29.6938 20.2043L36.3829 26.8935H34.016C33.6172 26.8935 33.2184 26.7262 32.9354 26.4432L26.7222 20.2043L32.9612 13.9525C33.2442 13.6695 33.6301 13.5023 34.0417 13.5152H36.3829L29.6938 20.2043ZM17.4346 13.9525C17.1516 13.6695 16.7657 13.5023 16.3541 13.5152H14L20.6891 20.2043L14 26.8935H16.3669C16.7657 26.8935 17.1645 26.7262 17.4475 26.4432L23.6735 20.1915L17.4346 13.9525ZM25.1915 21.7351L18.9397 27.974C18.6567 28.257 18.5023 28.6429 18.5023 29.0546V31.4086L25.1915 24.7195L31.8806 31.4086V29.0417C31.8806 28.6429 31.7262 28.2442 31.4432 27.9612L25.1915 21.7351ZM25.1915 18.6735L31.4432 12.4346C31.7262 12.1516 31.8806 11.7657 31.8806 11.3541V9L25.1915 15.6891L18.5023 9V11.3541C18.5023 11.7528 18.6567 12.1516 18.9397 12.4346L25.1915 18.6735Z" fill="#B48100"/>
</svg>
