<svg width="38" height="38" viewBox="0 0 38 38" fill="none" xmlns="http://www.w3.org/2000/svg">
<g id="Frame" clip-path="url(#clip0_11487_8093)">
<g id="Group">
<path id="Vector" d="M27.1799 9.34961H10.4922C9.57942 9.34961 8.83789 10.0889 8.83789 11.0041V27.6954C8.83789 28.6083 9.57716 29.3499 10.4922 29.3499H27.1799C28.0928 29.3499 28.8343 28.6105 28.8343 27.6954V11.0041C28.8343 10.0912 28.095 9.34961 27.1799 9.34961ZM26.6187 27.1341H11.0535V11.5654H26.6187V27.1319V27.1341Z" fill="url(#paint0_linear_11487_8093)"/>
<path id="Vector_2" d="M18.8351 20.5347L17.3115 22.0584C16.9847 22.3853 16.4528 22.3853 16.126 22.0584C15.7992 21.7316 15.7992 21.1996 16.126 20.8728L17.6496 19.349L16.126 17.8253C15.7992 17.4985 15.7992 16.9665 16.126 16.6397C16.4528 16.3128 16.9847 16.3128 17.3115 16.6397L18.8351 18.1634L20.3587 16.6397C20.6856 16.3128 21.2175 16.3128 21.5443 16.6397C21.8711 16.9665 21.8711 17.4985 21.5443 17.8253L20.0207 19.349L21.5443 20.8728C21.8711 21.1996 21.8711 21.7316 21.5443 22.0584C21.2175 22.3853 20.6856 22.3853 20.3587 22.0584L18.8351 20.5347Z" fill="url(#paint1_linear_11487_8093)"/>
<path id="Vector_3" d="M26.5407 15.5469H28.9727V13.5295H26.5407V15.5469Z" fill="white"/>
<path id="Vector_4" d="M29.7778 8.3895H28.5743C28.3151 8.3895 28.1055 8.17987 28.1055 7.92065C28.1055 7.66144 28.3151 7.45181 28.5743 7.45181H29.7778V6.24814C29.7778 5.98892 29.9875 5.7793 30.2467 5.7793C30.5058 5.7793 30.7155 5.98892 30.7155 6.24814V7.45181H31.919C32.1782 7.45181 32.3878 7.66144 32.3878 7.92065C32.3878 8.17987 32.1782 8.3895 31.919 8.3895H30.7155V9.59317C30.7155 9.85238 30.5058 10.062 30.2467 10.062C29.9875 10.062 29.7778 9.85238 29.7778 9.59317V8.3895Z" fill="#414240"/>
<path id="Vector_5" d="M11.1468 23.1504H8.71484V25.1678H11.1468V23.1504Z" fill="white"/>
<path id="Vector_6" d="M6.95363 31.2274H5.75006C5.49086 31.2274 5.28125 31.0178 5.28125 30.7585C5.28125 30.4993 5.49086 30.2897 5.75006 30.2897H6.95363V29.086C6.95363 28.8268 7.16324 28.6172 7.42243 28.6172C7.68163 28.6172 7.89124 28.8268 7.89124 29.086V30.2897H9.09481C9.354 30.2897 9.56361 30.4993 9.56361 30.7585C9.56361 31.0178 9.354 31.2274 9.09481 31.2274H7.89124V32.4311C7.89124 32.6903 7.68163 32.8999 7.42243 32.8999C7.16324 32.8999 6.95363 32.6903 6.95363 32.4311V31.2274Z" fill="#414240"/>
<path id="Vector_7" d="M13.1987 29.5188V36.5379H1.64307V24.9836H13.1987V26.9469H14.8418V24.5666C14.8418 23.8881 14.2918 23.3381 13.6134 23.3381H1.22836C0.549945 23.3381 0 23.8881 0 24.5666V36.9549C0 37.6334 0.549945 38.1834 1.22836 38.1834H13.6157C14.2941 38.1834 14.844 37.6334 14.844 36.9549V29.521H13.2009L13.1987 29.5188Z" fill="url(#paint2_linear_11487_8093)"/>
<path id="Vector_8" d="M36.4399 0.5H24.0526C23.3742 0.5 22.8242 1.04999 22.8242 1.72846V9.17813H24.4673V2.14321H36.0207V13.6998H24.4673V11.7523H22.8242V14.1168C22.8242 14.7952 23.3742 15.3452 24.0526 15.3452H36.4399C37.1183 15.3452 37.6682 14.7952 37.6682 14.1168V1.72846C37.6682 1.04999 37.1183 0.5 36.4399 0.5Z" fill="url(#paint3_linear_11487_8093)"/>
</g>
</g>
<defs>
<linearGradient id="paint0_linear_11487_8093" x1="18.8361" y1="29.3476" x2="18.8361" y2="9.34961" gradientUnits="userSpaceOnUse">
<stop stop-color="#080345"/>
<stop offset="1" stop-color="#04C0FF"/>
</linearGradient>
<linearGradient id="paint1_linear_11487_8093" x1="18.8351" y1="16.394" x2="18.8351" y2="22.3041" gradientUnits="userSpaceOnUse">
<stop stop-color="#080345"/>
<stop offset="1" stop-color="#04C0FF"/>
</linearGradient>
<linearGradient id="paint2_linear_11487_8093" x1="0" y1="30.7608" x2="14.8418" y2="30.7608" gradientUnits="userSpaceOnUse">
<stop stop-color="#D93357"/>
<stop offset="0.07" stop-color="#C13453"/>
<stop offset="0.21" stop-color="#9A384E"/>
<stop offset="0.35" stop-color="#7A3B49"/>
<stop offset="0.5" stop-color="#613D46"/>
<stop offset="0.65" stop-color="#4F3E43"/>
<stop offset="0.81" stop-color="#443F42"/>
<stop offset="1" stop-color="#414042"/>
</linearGradient>
<linearGradient id="paint3_linear_11487_8093" x1="37.6682" y1="7.92262" x2="22.8242" y2="7.92262" gradientUnits="userSpaceOnUse">
<stop stop-color="#D93357"/>
<stop offset="0.07" stop-color="#C13453"/>
<stop offset="0.21" stop-color="#9A384E"/>
<stop offset="0.35" stop-color="#7A3B49"/>
<stop offset="0.5" stop-color="#613D46"/>
<stop offset="0.65" stop-color="#4F3E43"/>
<stop offset="0.81" stop-color="#443F42"/>
<stop offset="1" stop-color="#414042"/>
</linearGradient>
<clipPath id="clip0_11487_8093">
<rect width="38" height="38" fill="white"/>
</clipPath>
</defs>
</svg>
