<svg width="60" height="60" viewBox="0 0 60 60" fill="none" xmlns="http://www.w3.org/2000/svg">
<g id="humbleicons:cpu">
<path id="Vector" d="M22.5 7.5V15M37.5 7.5V15M45 22.5H52.5M45 37.5H52.5M37.5 45V52.5M22.5 45V52.5M15 37.5H7.5M15 22.5H7.5M23.75 33.75V26.25C23.75 25.587 24.0134 24.9511 24.4822 24.4822C24.9511 24.0134 25.587 23.75 26.25 23.75H33.75C34.413 23.75 35.0489 24.0134 35.5178 24.4822C35.9866 24.9511 36.25 25.587 36.25 26.25V33.75C36.25 34.413 35.9866 35.0489 35.5178 35.5178C35.0489 35.9866 34.413 36.25 33.75 36.25H26.25C25.587 36.25 24.9511 35.9866 24.4822 35.5178C24.0134 35.0489 23.75 34.413 23.75 33.75ZM17.5 45H42.5C43.163 45 43.7989 44.7366 44.2678 44.2678C44.7366 43.7989 45 43.163 45 42.5V17.5C45 16.837 44.7366 16.2011 44.2678 15.7322C43.7989 15.2634 43.163 15 42.5 15H17.5C16.837 15 16.2011 15.2634 15.7322 15.7322C15.2634 16.2011 15 16.837 15 17.5V42.5C15 43.163 15.2634 43.7989 15.7322 44.2678C16.2011 44.7366 16.837 45 17.5 45Z" stroke="#B48100" stroke-width="2" stroke-linecap="round" stroke-linejoin="round"/>
</g>
</svg>
