<svg width="18" height="18" viewBox="0 0 18 18" fill="none" xmlns="http://www.w3.org/2000/svg">
<g id="material-symbols:location-on-outline-rounded">
<path id="Vector" d="M9 9C9.4125 9 9.76575 8.853 10.0598 8.559C10.3538 8.265 10.5005 7.912 10.5 7.5C10.5 7.0875 10.353 6.73425 10.059 6.44025C9.765 6.14625 9.412 5.9995 9 6C8.5875 6 8.23425 6.147 7.94025 6.441C7.64625 6.735 7.4995 7.088 7.5 7.5C7.5 7.9125 7.647 8.26575 7.941 8.55975C8.235 8.85375 8.588 9.0005 9 9ZM9 14.5125C10.525 13.1125 11.6562 11.8405 12.3937 10.6965C13.1312 9.5525 13.5 8.537 13.5 7.65C13.5 6.2875 13.0655 5.172 12.1965 4.3035C11.3275 3.435 10.262 3.0005 9 3C7.7375 3 6.67175 3.4345 5.80275 4.3035C4.93375 5.1725 4.4995 6.288 4.5 7.65C4.5 8.5375 4.86875 9.55325 5.60625 10.6972C6.34375 11.8412 7.475 13.113 9 14.5125ZM9 16.2188C8.9 16.2188 8.8 16.2 8.7 16.1625C8.6 16.125 8.5125 16.075 8.4375 16.0125C6.6125 14.4 5.25 12.903 4.35 11.5215C3.45 10.14 3 8.8495 3 7.65C3 5.775 3.60325 4.28125 4.80975 3.16875C6.01625 2.05625 7.413 1.5 9 1.5C10.5875 1.5 11.9845 2.05625 13.191 3.16875C14.3975 4.28125 15.0005 5.775 15 7.65C15 8.85 14.55 10.1407 13.65 11.5223C12.75 12.9037 11.3875 14.4005 9.5625 16.0125C9.4875 16.075 9.4 16.125 9.3 16.1625C9.2 16.2 9.1 16.2188 9 16.2188Z" fill="#7E7E9B"/>
</g>
</svg>
