<svg width="17" height="17" viewBox="0 0 17 17" fill="none" xmlns="http://www.w3.org/2000/svg">
<g id="LOCK">
<path id="Vector 9" d="M6.30811 7L6.30811 4.33333C6.3081 2.86057 7.50201 1.66667 8.97477 1.66667V1.66667C10.4475 1.66667 11.6414 2.86057 11.6414 4.33333L11.6414 7" stroke="#000036" stroke-width="1.5" stroke-linecap="round"/>
<path id="Rectangle 1" d="M2.97461 11C2.97461 9.11438 2.97461 8.17157 3.5604 7.58579C4.14618 7 5.08899 7 6.97461 7H10.9746C12.8602 7 13.803 7 14.3888 7.58579C14.9746 8.17157 14.9746 9.11438 14.9746 11V13C14.9746 13.9428 14.9746 14.4142 14.6817 14.7071C14.3888 15 13.9174 15 12.9746 15H4.97461C4.0318 15 3.5604 15 3.2675 14.7071C2.97461 14.4142 2.97461 13.9428 2.97461 13V11Z" stroke="#000036" stroke-width="1.5"/>
<circle id="Ellipse 1145" cx="6.97477" cy="11.0002" r="0.666667" fill="#000036"/>
<circle id="Ellipse 1146" cx="8.97477" cy="11.0002" r="0.666667" fill="#000036"/>
<circle id="Ellipse 1147" cx="10.9748" cy="11.0002" r="0.666667" fill="#000036"/>
</g>
</svg>
