<svg width="60" height="60" viewBox="0 0 60 60" fill="none" xmlns="http://www.w3.org/2000/svg">
<g id="ci:users-group">
<path id="Vector" d="M42.5 50C42.5 45.8575 36.9025 42.5 30 42.5C23.0975 42.5 17.5 45.8575 17.5 50M52.5 42.5C52.5 39.425 49.415 36.7825 45 35.625M7.5 42.5C7.5 39.425 10.585 36.7825 15 35.625M45 25.59C45.7407 24.9352 46.3446 24.1405 46.777 23.2515C47.2094 22.3625 47.4618 21.3968 47.5196 20.4099C47.5775 19.423 47.4397 18.4344 47.1141 17.501C46.7885 16.5676 46.2816 15.7077 45.6226 14.9709C44.9635 14.234 44.1653 13.6348 43.2738 13.2075C42.3823 12.7803 41.4151 12.5335 40.4279 12.4814C39.4407 12.4293 38.4529 12.5728 37.5214 12.9038C36.5899 13.2348 35.733 13.7467 35 14.41M15 25.59C13.5307 24.2604 12.6474 22.4033 12.5429 20.4245C12.4384 18.4457 13.1213 16.5059 14.4424 15.029C15.7635 13.552 17.6154 12.6579 19.5935 12.5419C21.5717 12.4259 23.5154 13.0975 25 14.41M30 35C29.0151 35 28.0398 34.806 27.1299 34.4291C26.2199 34.0522 25.3931 33.4997 24.6967 32.8033C24.0003 32.1069 23.4478 31.2801 23.0709 30.3701C22.694 29.4602 22.5 28.4849 22.5 27.5C22.5 26.5151 22.694 25.5398 23.0709 24.6299C23.4478 23.7199 24.0003 22.8931 24.6967 22.1967C25.3931 21.5003 26.2199 20.9478 27.1299 20.5709C28.0398 20.194 29.0151 20 30 20C31.9891 20 33.8968 20.7902 35.3033 22.1967C36.7098 23.6032 37.5 25.5109 37.5 27.5C37.5 29.4891 36.7098 31.3968 35.3033 32.8033C33.8968 34.2098 31.9891 35 30 35Z" stroke="#B48100" stroke-width="2" stroke-linecap="round" stroke-linejoin="round"/>
</g>
</svg>
