<svg width="24" height="24" viewBox="0 0 24 24" fill="none" xmlns="http://www.w3.org/2000/svg">
<g id="menu">
<path id="Union" fill-rule="evenodd" clip-rule="evenodd" d="M19.5 8C19.7761 8 20 7.77614 20 7.5V6.5C20 6.22386 19.7761 6 19.5 6H4.5C4.22386 6 4 6.22386 4 6.5V7.5C4 7.77614 4.22386 8 4.5 8H19.5ZM20 12.5C20 12.7761 19.7761 13 19.5 13H4.5C4.22386 13 4 12.7761 4 12.5V11.5C4 11.2239 4.22386 11 4.5 11H19.5C19.7761 11 20 11.2239 20 11.5V12.5ZM20 17.5C20 17.7761 19.7761 18 19.5 18H4.5C4.22386 18 4 17.7761 4 17.5V16.5C4 16.2239 4.22386 16 4.5 16H19.5C19.7761 16 20 16.2239 20 16.5V17.5Z" fill="#000036"/>
</g>
</svg>
