<svg width="120" height="40" viewBox="0 0 120 40" fill="none" xmlns="http://www.w3.org/2000/svg">
<path d="M36 19.9988L23 7V10.944L32.0556 19.9988L23 29.056V33L36 19.9988Z" fill="#B48100"/>
<path d="M29 19.9988L20 11V14.9207L25.0798 19.9988L20 25.0794V29L29 19.9988Z" fill="#B48100"/>
<path d="M17.0045 15L17 25L22 19.9966L17.0045 15Z" fill="#B48100"/>
<path d="M56 15V26H53.1855L44.5901 18.0577V26H42V15H44.8145L53.4099 22.9584V15H56Z" fill="#B48100"/>
<path d="M59 15H65.033C69.9795 15 72 17.1503 72 20.4805C72 23.8106 69.9629 26 65.0163 26H59V15ZM65.0163 23.8934C68.0566 23.8934 69.3259 22.8101 69.3259 20.4805C69.3259 18.1508 68.0566 17.102 65.0163 17.102H61.5743V23.8934H65.0163Z" fill="#B48100"/>
<path d="M83.6128 23.4691H76.3157L74.836 26H72L78.5352 15H81.4648L88 26H85.0876L83.6128 23.4691ZM82.4513 21.4628L79.963 17.2087L77.4969 21.4628H82.4513Z" fill="#B48100"/>
<path d="M97.179 20.4805L103 26H99.541L95.4987 22.0696L91.4661 26H88.0336L93.8377 20.4805L88 15H91.4757L95.5083 18.9097L99.5578 15H103L97.179 20.4805Z" fill="#B48100"/>
</svg>
