<svg width="176" height="46" viewBox="0 0 176 46" fill="none" xmlns="http://www.w3.org/2000/svg">
<g clip-path="url(#clip0_5311_52537)">
<path d="M73.9213 13.9683V31.8694C73.9213 35.7777 72.0793 37.7332 68.3953 37.7332H62.4684C58.7844 37.7332 56.9424 35.7777 56.9424 31.8694V13.9683C56.9424 10.06 58.7844 8.10449 62.4684 8.10449H68.3953C72.0793 8.10449 73.9213 10.06 73.9213 13.9683ZM67.684 32.5812V13.2142C67.684 12.9787 67.6017 12.7696 67.4398 12.5923C67.2752 12.415 67.0761 12.3251 66.8373 12.3251H64.0291C63.7902 12.3251 63.5912 12.415 63.4266 12.5923C63.262 12.7696 63.1824 12.9787 63.1824 13.2142V32.5812C63.1824 32.8193 63.2647 33.0257 63.4266 33.203C63.5885 33.3803 63.7902 33.4703 64.0291 33.4703H66.8373C67.0735 33.4703 67.2752 33.3803 67.4398 33.203C67.6017 33.0257 67.684 32.8193 67.684 32.5812Z" fill="#1F3151"/>
<path d="M95.0406 37.2887H88.8033V13.4364C88.8033 13.2009 88.721 12.9919 88.5591 12.8146C88.3945 12.6373 88.1954 12.5473 87.9566 12.5473H85.5519C85.313 12.5473 85.1139 12.6373 84.9493 12.8146C84.7848 12.9919 84.7052 13.2009 84.7052 13.4364V37.2913H78.4678V13.9683C78.4678 10.06 80.3098 8.10449 83.9938 8.10449H89.5199C93.2039 8.10449 95.0459 10.06 95.0459 13.9683V37.2887H95.0406Z" fill="#1F3151"/>
<path d="M105.421 37.2887H99.1836V13.9683C99.1836 10.06 101.026 8.10449 104.71 8.10449H108.006C110.175 8.10449 111.719 8.8163 112.64 10.2373C113.5 8.8163 115.045 8.10449 117.275 8.10449H120.571C124.255 8.10449 126.097 10.06 126.097 13.9683V37.2887H119.86V13.4364C119.86 13.2009 119.778 12.9919 119.616 12.8146C119.451 12.6373 119.252 12.5473 119.013 12.5473H116.608C116.37 12.5473 116.171 12.6373 116.006 12.8146C115.841 12.9919 115.762 13.2009 115.762 13.4364V37.2913H109.524V13.4364C109.524 13.2009 109.442 12.9919 109.28 12.8146C109.116 12.6373 108.917 12.5473 108.678 12.5473H106.27C106.031 12.5473 105.832 12.6373 105.668 12.8146C105.503 12.9919 105.424 13.2009 105.424 13.4364V37.2913L105.421 37.2887Z" fill="#1F3151"/>
<path d="M136.611 8.5498V37.2894H130.374V8.5498H136.611Z" fill="#1F3151"/>
<path d="M157.774 37.2887H151.536V13.4364C151.536 13.2009 151.454 12.9919 151.292 12.8146C151.128 12.6373 150.929 12.5473 150.69 12.5473H148.282C148.043 12.5473 147.844 12.6373 147.68 12.8146C147.515 12.9919 147.436 13.2009 147.436 13.4364V37.2913H141.198V13.9683C141.198 10.06 143.04 8.10449 146.724 8.10449H152.25C155.934 8.10449 157.776 10.06 157.776 13.9683V37.2887H157.774Z" fill="#1F3151"/>
<path d="M168.201 32.1374H175.108V37.2894H161.964V8.5498H175.108V13.6145H168.201V20.3674H174.662V25.2548H168.201V32.14V32.1374Z" fill="#1F3151"/>
<path d="M31.804 11.1885H12.1523C11.0773 11.1885 10.2041 12.0564 10.2041 13.1307V32.7253C10.2041 33.797 11.0747 34.6676 12.1523 34.6676H31.804C32.879 34.6676 33.7522 33.7997 33.7522 32.7253V13.1307C33.7522 12.0591 32.8817 11.1885 31.804 11.1885ZM31.1431 32.0664H12.8132V13.7896H31.1431V32.0638V32.0664Z" fill="url(#paint0_linear_5311_52537)"/>
<path d="M21.978 24.3183L20.1838 26.1071C19.7989 26.4908 19.1725 26.4908 18.7877 26.1071C18.4028 25.7234 18.4028 25.0989 18.7877 24.7152L20.5819 22.9264L18.7877 21.1376C18.4028 20.7539 18.4028 20.1295 18.7877 19.7458C19.1725 19.3621 19.7989 19.3621 20.1838 19.7458L21.978 21.5346L23.7723 19.7458C24.1571 19.3621 24.7835 19.3621 25.1684 19.7458C25.5532 20.1295 25.5532 20.7539 25.1684 21.1376L23.3741 22.9264L25.1684 24.7152C25.5532 25.0989 25.5532 25.7234 25.1684 26.1071C24.7835 26.4908 24.1571 26.4908 23.7723 26.1071L21.978 24.3183Z" fill="url(#paint1_linear_5311_52537)"/>
<path d="M31.0531 18.4639H33.917V16.0956H31.0531V18.4639Z" fill="white"/>
<path d="M34.8649 10.0613H33.4476C33.1423 10.0613 32.8955 9.8152 32.8955 9.51089C32.8955 9.20659 33.1423 8.9605 33.4476 8.9605H34.8649V7.54747C34.8649 7.24316 35.1118 6.99707 35.417 6.99707C35.7222 6.99707 35.9691 7.24316 35.9691 7.54747V8.9605H37.3864C37.6917 8.9605 37.9385 9.20659 37.9385 9.51089C37.9385 9.8152 37.6917 10.0613 37.3864 10.0613H35.9691V11.4743C35.9691 11.7786 35.7222 12.0247 35.417 12.0247C35.1118 12.0247 34.8649 11.7786 34.8649 11.4743V10.0613Z" fill="#414240"/>
<path d="M12.9244 27.3896H10.0605V29.7579H12.9244V27.3896Z" fill="white"/>
<path d="M7.98602 36.8718H6.56868C6.26344 36.8718 6.0166 36.6257 6.0166 36.3214C6.0166 36.0171 6.26344 35.771 6.56868 35.771H7.98602V34.358C7.98602 34.0537 8.23286 33.8076 8.5381 33.8076C8.84333 33.8076 9.09017 34.0537 9.09017 34.358V35.771H10.5075C10.8128 35.771 11.0596 36.0171 11.0596 36.3214C11.0596 36.6257 10.8128 36.8718 10.5075 36.8718H9.09017V38.2849C9.09017 38.5892 8.84333 38.8353 8.5381 38.8353C8.23286 38.8353 7.98602 38.5892 7.98602 38.2849V36.8718Z" fill="#414240"/>
<path d="M15.3399 34.866V43.1061H1.73179V29.542H15.3399V31.8468H17.2748V29.0525C17.2748 28.256 16.6272 27.6104 15.8283 27.6104H1.24342C0.444501 27.6104 -0.203125 28.256 -0.203125 29.0525V43.5956C-0.203125 44.3921 0.444501 45.0378 1.24342 45.0378H15.8309C16.6299 45.0378 17.2775 44.3921 17.2775 43.5956V34.8687H15.3426L15.3399 34.866Z" fill="url(#paint2_linear_5311_52537)"/>
<path d="M42.7098 0.799805H28.1223C27.3234 0.799805 26.6758 1.44546 26.6758 2.24195V10.9874H28.6107V2.72883H42.2162V16.2955H28.6107V14.0093H26.6758V16.7851C26.6758 17.5816 27.3234 18.2272 28.1223 18.2272H42.7098C43.5088 18.2272 44.1564 17.5816 44.1564 16.7851V2.24195C44.1564 1.44546 43.5088 0.799805 42.7098 0.799805Z" fill="url(#paint3_linear_5311_52537)"/>
</g>
<defs>
<linearGradient id="paint0_linear_5311_52537" x1="21.9782" y1="34.6649" x2="21.9782" y2="11.1885" gradientUnits="userSpaceOnUse">
<stop stop-color="#080345"/>
<stop offset="1" stop-color="#04C0FF"/>
</linearGradient>
<linearGradient id="paint1_linear_5311_52537" x1="21.978" y1="19.4573" x2="21.978" y2="26.3955" gradientUnits="userSpaceOnUse">
<stop stop-color="#080345"/>
<stop offset="1" stop-color="#04C0FF"/>
</linearGradient>
<linearGradient id="paint2_linear_5311_52537" x1="-0.203125" y1="36.3241" x2="17.2748" y2="36.3241" gradientUnits="userSpaceOnUse">
<stop stop-color="#D93357"/>
<stop offset="0.07" stop-color="#C13453"/>
<stop offset="0.21" stop-color="#9A384E"/>
<stop offset="0.35" stop-color="#7A3B49"/>
<stop offset="0.5" stop-color="#613D46"/>
<stop offset="0.65" stop-color="#4F3E43"/>
<stop offset="0.81" stop-color="#443F42"/>
<stop offset="1" stop-color="#414042"/>
</linearGradient>
<linearGradient id="paint3_linear_5311_52537" x1="44.1564" y1="9.51351" x2="26.6758" y2="9.51351" gradientUnits="userSpaceOnUse">
<stop stop-color="#D93357"/>
<stop offset="0.07" stop-color="#C13453"/>
<stop offset="0.21" stop-color="#9A384E"/>
<stop offset="0.35" stop-color="#7A3B49"/>
<stop offset="0.5" stop-color="#613D46"/>
<stop offset="0.65" stop-color="#4F3E43"/>
<stop offset="0.81" stop-color="#443F42"/>
<stop offset="1" stop-color="#414042"/>
</linearGradient>
<clipPath id="clip0_5311_52537">
<rect width="175.803" height="44.32" fill="white" transform="translate(0 0.799805)"/>
</clipPath>
</defs>
</svg>
