<svg width="60" height="60" viewBox="0 0 60 60" fill="none" xmlns="http://www.w3.org/2000/svg">
<g id="solar:cpu-bolt-linear">
<g id="Group">
<path id="Vector" d="M17.5 25C17.5 21.465 17.5 19.6975 18.6 18.6C19.695 17.5 21.4625 17.5 25 17.5H35C38.535 17.5 40.3025 17.5 41.4 18.6C42.5 19.6975 42.5 21.465 42.5 25V35C42.5 38.535 42.5 40.3025 41.4 41.4C40.3025 42.5 38.535 42.5 35 42.5H25C21.465 42.5 19.6975 42.5 18.6 41.4C17.5 40.305 17.5 38.5375 17.5 35V25Z" stroke="#B48100" stroke-width="2"/>
<path id="Vector_2" d="M31.0725 25L27.5 30H32.5L28.9275 35" stroke="#B48100" stroke-width="2" stroke-linecap="round" stroke-linejoin="round"/>
<path id="Vector_3" d="M10 30C10 20.5725 10 15.8575 12.93 12.93C15.8575 10 20.5725 10 30 10C39.4275 10 44.1425 10 47.07 12.93C50 15.8575 50 20.5725 50 30C50 39.4275 50 44.1425 47.07 47.07C44.1425 50 39.4275 50 30 50C20.5725 50 15.8575 50 12.93 47.07C10 44.1425 10 39.4275 10 30Z" stroke="#B48100" stroke-width="2"/>
<path id="Vector_4" d="M10 30H5M55 30H50M10 22.5H5M55 22.5H50M10 37.5H5M55 37.5H50M30 50V55M30 5V10M22.5 50V55M22.5 5V10M37.5 50V55M37.5 5V10" stroke="#B48100" stroke-width="2" stroke-linecap="round"/>
</g>
</g>
</svg>
