<svg width="120" height="40" viewBox="0 0 120 40" fill="none" xmlns="http://www.w3.org/2000/svg">
<path d="M23.5137 7C20.1253 7 17.3831 9.88649 17.3831 13.4532V15.8718C16.1933 16.0986 15 16.4009 15 16.7932V29.4153C15 29.4153 15 29.7644 15.3727 29.93C16.7233 30.5058 22.0366 32.4853 23.2572 32.9388C23.4145 33 23.459 33 23.5 33C23.5581 33 23.5855 33 23.7428 32.9388C24.9634 32.4853 30.2904 30.5058 31.641 29.93C31.9863 29.7788 32 29.4297 32 29.4297V16.7932C32 16.4009 30.8238 16.0842 29.6305 15.8718V13.4532C29.6476 9.88649 26.8884 7 23.5137 7ZM23.5137 10.0844C25.5105 10.0844 26.7174 11.3549 26.7174 13.4568V15.5587C24.4779 15.3931 22.5666 15.3931 20.3134 15.5587V13.4568C20.3134 11.3513 21.5203 10.0844 23.5137 10.0844ZM23.5 18.6539C26.2866 18.6539 28.6253 18.8807 28.6253 19.2874V27.1622C28.6253 27.2846 28.6116 27.299 28.5091 27.3422C28.4099 27.389 23.7564 29.1561 23.7564 29.1561C23.7564 29.1561 23.5684 29.2173 23.5137 29.2173C23.4556 29.2173 23.2709 29.1418 23.2709 29.1418C23.2709 29.1418 18.6175 27.3746 18.5183 27.3278C18.4191 27.281 18.4021 27.2666 18.4021 27.1478V19.273C18.3747 18.8663 20.7134 18.6539 23.5 18.6539Z" fill="#B48100"/>
<path d="M40.5343 26.3428V18.5028H37.4653V15.6914H47.0342V18.5028H43.9953V26.3428H40.5343Z" fill="#B48100"/>
<path d="M54.7873 26.3428L53.2126 22.9935H51.9595V26.3428H48.4985V15.6914H54.5896C57.2633 15.6914 58.6972 17.3457 58.6972 19.3409C58.6972 21.1797 57.5581 22.1523 56.6434 22.5713L58.7106 26.3397H54.7873V26.3428ZM55.196 19.3409C55.196 18.7624 54.6466 18.5122 54.0703 18.5122H51.9595V20.1946H54.0703C54.6466 20.1821 55.196 19.9319 55.196 19.3409Z" fill="#B48100"/>
<path d="M60.5132 26.3428V15.6914H69.1673V18.5028H63.9608V19.5536H69.04V22.3649H63.9608V23.5345H69.1673V26.3428H60.5132Z" fill="#B48100"/>
<path d="M70.9663 26.3545V23.7933L75.3152 18.5145H70.9663V15.7031H79.8717V18.2393L75.5095 23.5463H79.9991V26.3576L70.9663 26.3545Z" fill="#B48100"/>
<path d="M80.8433 21.036C80.8433 17.7649 83.5605 15.5195 87.0918 15.5195C90.6098 15.5195 93.3404 17.7524 93.3404 21.036C93.3404 24.3071 90.6232 26.5399 87.0918 26.5399C83.5605 26.5399 80.8433 24.3071 80.8433 21.036ZM89.8224 21.036C89.8224 19.5505 88.7402 18.3685 87.0784 18.3685C85.4166 18.3685 84.3344 19.5505 84.3344 21.036C84.3344 22.5214 85.4166 23.7035 87.0784 23.7035C88.7536 23.7035 89.8224 22.5214 89.8224 21.036Z" fill="#B48100"/>
<path d="M101.077 26.3545L99.5021 23.0052H98.2491V26.3545H94.7881V15.7031H100.879C103.553 15.7031 104.987 17.3574 104.987 19.3526C104.987 21.1914 103.848 22.164 102.933 22.5831L105 26.3514H101.077V26.3545ZM101.499 19.3401C101.499 18.7616 100.95 18.5114 100.373 18.5114H98.2625V20.1938H100.373C100.953 20.1813 101.499 19.9312 101.499 19.3401Z" fill="#B48100"/>
</svg>
