<svg width="18" height="17" viewBox="0 0 18 17" fill="none" xmlns="http://www.w3.org/2000/svg">
<path d="M17 4.77238L17 4.67C17 3.01315 15.6569 1.67 14 1.67V1.67C12.3431 1.67 11 3.01315 11 4.67L11 7" stroke="#FBFBFD" stroke-width="1.5" stroke-linecap="round"/>
<path d="M2 11C2 9.11438 2 8.17157 2.58579 7.58579C3.17157 7 4.11438 7 6 7H10C11.8856 7 12.8284 7 13.4142 7.58579C14 8.17157 14 9.11438 14 11V13C14 13.9428 14 14.4142 13.7071 14.7071C13.4142 15 12.9428 15 12 15H4C3.05719 15 2.58579 15 2.29289 14.7071C2 14.4142 2 13.9428 2 13V11Z" stroke="#FBFBFD" stroke-width="1.5"/>
<circle cx="6.00016" cy="11.0007" r="0.666667" fill="#FBFBFD"/>
<circle cx="8.00016" cy="11.0007" r="0.666667" fill="#FBFBFD"/>
<circle cx="10.0002" cy="11.0007" r="0.666667" fill="#FBFBFD"/>
</svg>
